<svg xmlns="http://www.w3.org/2000/svg" fill="none" viewBox="0 0 192 192">
    <path d="m46 123-2 3h3s2-4-1-3zM186 14l-3-2c-1-1-4 2-3 0-4-2-4-3-4-1l-3-3h-5c-2-2-2 1-1-4l-9-2c1 4-2 4-2 6l-1 3-1 1-2 3-1 5h-1v2h-1v3l-3 4 1 1-2 3 1 2h-1l-1 3-3 7-1 6-1 4-1 4-2 1c-1 3-1 8-3 9l-1 6-3 9-1 2h-1l1 2h-1v2h-1l1 2-3 9v2l-2 6-1 6-1 1c-1 2 0 6-3 8 1-3-2-8-2-8l1-1-2-8 1-2-2-1c1-1 2-1 0-2l1-1-1-2v-5l-1-1 1-2-1-7-2-19c-1-8-2-17-1-25-3-2-5-3-8-3-1-3-7 0-6-4l-6 1c-1-6-5-4-7-5l-4 9v2l-1 5-2 3v1l-1 2v4l-3 2v4l-1 2-1 4-2 2v4l-1 1-1 5-2 4-1 2-1 4v4l-2 2-1 5-1 7-2 1v4l-2 6v1c-2 4-2 9-3 14 1 0 2 2-1 2-1 0-1-2-3-2 1-2 3-1 2-2-3-1 1 0 0-2 0 0-3 0-2-1 0-1 4 1 3-1h-3c-1-1-1-3-2-2 2-2 0-4 0-5l-1-1v-2l-1-9c-2 0 0-1-1-3l-2-2c2 0-1-1-1-2 1-1 3 0 2-2l-2-2c0-2-3-9 0-9v2c3 1 1 3 1 4h2v1l1 6c1 2 0 3 2 4l-1 2 2 2c0 1-2 2 0 2v3l3 1-3 1c4 1 2-2 3-4l-1-7v-5l-2-30V56l1-1-2-1 1-3c-1-6 1-8 1-11V28l1-9-4-2c1 3-4-3-3 0l-1-2-8-1v-2h-3l-5-2c-2-1-4-2-7-1-2 2-3 7-3 8l-1 4-1 1 2 2-1 1v2l-1 5-1 10v42l1 12 7 39 1 7c2 1 1 6 1 6l7 17 3 6 1 4 4 4 1 3 6 1 5 1 10 5h8l3-2c-1-2 1-3 2-4l1-10h1v-3l1-6 1-3 1-1 1-10c1-3 3-3 1-4-1-1 1-2 1-3v-1c1-3 1-9 3-10l-1-2 2-2c1-1-1-2-1-1l2-6c1-2 0-4 2-5 3 16 8 31 13 47l2 7 2 2 1 4 2 1 1 3h2l1 3 7 1h2l2 3h2l1 1c5 2 12 3 16 1 3-4 3-10 5-14l1-8v-9l2-2 1-3-1-1 1-4 1-5c1-4 3-10 2-14l1-1c1-3 1-8 3-9v-4l1-1 1-5 1-5 2-5v-1l4-17 2-7 2-2v-5c2 0 3-4 3-5l1-5 2-8 1-3 2-4 2-6 1-2 2-8 2-4c0-3 3-6 2-8zM24 23c-4-1 0-3-1-6 2-2 0 4 1 6zm-3 22c-3 1-1-11 0-8 2 4-1 5 0 8zm0 4c0 3-2 0-1-1 0-2 1 0 1 1zm0 14-1-4Zm15 15c-4 0-2-7-2-8l2 2c-2 2 1 3 1 4zm-2-15c-1 1 4 8-2 7-1-1 1-1 2-2 0-1-5-6 0-5zm-13 8-1-4c1-3 1 3 1 4zm1 8-2-3c0-2 1 1 2 3zm17 8c-6-1-3-4-4-8h2zm-17 5c-1 3-1-5-2-6 2-3 1 4 2 6zm83-3c5 1-4 4 0 0zm3 7c0 3-5 0-5 0h1v-3c4-1 2 3 4 3zm-3 3 2-1v2l1 1v2c0 1 3 2-1 2l2 2v1c1 1 0 1-1 1h-2zm28 11c-3-1 2-7 0 0zm-26 5-1-3h1v-2c5 0 4 7 0 5zm25 1c-3-2 2-8 0 0zm-18 22c-3-3-2-8-5-10l3-1c0-3-2-2-3-3 2-3-5-9 3-8 0 1-3 5 0 6 2 0 1 5 1 6l1 1-1 1 3 1-2 1 2 3-1 3c1 1 7 7 0 8 0-3 2-2 1-4 0-1-2 0-2-2zm12 1c-3-1 2-7 0 0zm-74-2c1 3-3 1-4 0-1-3 4 0 4 0zm69 16c-3 0-2-5-4-6-1-2 3 0 4 0l-3 3c2 1 2-1 3 1z" />
    <style>
        path { fill: #000; }
        @media (prefers-color-scheme: dark) {
            path { fill: #FFF; }
        }
    </style>
</svg>
